<svg xmlns="http://www.w3.org/2000/svg" viewBox="0 0 24 24" version="1.1" id="svg13"><g id="g3762" transform="translate(-.48 -.58)"><path d="M11.2 1.44a10.05 10.05 0 102.47 19.84 1.04 1.04 0 10-.46-2.03 7.96 7.96 0 116.12-6.54 1.04 1.04 0 102.05.32A10.03 10.03 0 0011.2 1.43zM8.51 7.12a1.5 1.5 0 00-1.5 1.5 1.5 1.5 0 001.5 1.5 1.5 1.5 0 001.5-1.5 1.5 1.5 0 00-1.5-1.5zm6 0a1.5 1.5 0 00-1.5 1.5 1.5 1.5 0 001.5 1.5 1.5 1.5 0 001.5-1.5 1.5 1.5 0 00-1.5-1.5zm-8 5.3a5 5 0 0010 0h-10zm12.71 2.67a.94.94 0 00-.9.94v1.87h-1.89a.94.94 0 000 1.88h1.88v1.88a.94.94 0 001.88 0v-1.88h1.88a.94.94 0 000-1.88H20.2v-1.87a.94.94 0 00-.97-.94z" transform="translate(.48 .58)" id="path4746" /></g></svg>
