<svg xmlns="http://www.w3.org/2000/svg" width="23.879" height="25.487" viewBox="0 0 23.879 25.487">
  <g id="groups4" transform="translate(-1497 -230.513)">
    <path id="checkbox-multiple-blank-circle" d="M14,2a8,8,0,1,0,8,8,8,8,0,0,0-8-8M4.93,5.82A7.994,7.994,0,0,0,10,20a7.868,7.868,0,0,0,1.88-.23,10.374,10.374,0,0,1-4.71-2.48A6,6,0,0,1,4,12a6.67,6.67,0,0,1,.07-.89A10.336,10.336,0,0,1,4,10,9.918,9.918,0,0,1,4.93,5.82Z" transform="translate(1495 236)"/>
    <path id="checkbox-multiple-blank-circle-2" data-name="checkbox-multiple-blank-circle" d="M8.95,5.82A7.994,7.994,0,0,1,3.88,20,7.868,7.868,0,0,1,2,19.77a10.374,10.374,0,0,0,4.71-2.48A6,6,0,0,0,9.88,12a6.669,6.669,0,0,0-.07-.89A10.336,10.336,0,0,0,9.88,10,9.918,9.918,0,0,0,8.95,5.82Z" transform="translate(1509 236)"/>
    <path id="checkbox-multiple-blank-circle-3" data-name="checkbox-multiple-blank-circle" d="M8.95,5.82A7.994,7.994,0,0,1,3.88,20,7.868,7.868,0,0,1,2,19.77a10.374,10.374,0,0,0,4.71-2.48A6,6,0,0,0,9.88,12a6.669,6.669,0,0,0-.07-.89A10.336,10.336,0,0,0,9.88,10,9.918,9.918,0,0,0,8.95,5.82Z" transform="translate(1499.968 249.5) rotate(-114)"/>
  </g>
</svg>
