<svg xmlns="http://www.w3.org/2000/svg" width="327" height="327" viewBox="0 0 327 327">
  <path id="circles" d="M5235.284,3682a133.165,133.165,0,0,1-26.055-2.567,129.869,129.869,0,0,1-65.362-34.441,127.957,127.957,0,0,1-15.787-18.7,125.494,125.494,0,0,1-11.92-21.462,123.919,123.919,0,0,1,0-98.364A125.473,125.473,0,0,1,5128.08,3485a127.971,127.971,0,0,1,15.787-18.7,130.028,130.028,0,0,1,65.362-34.44,133.264,133.264,0,0,1,61.155,2.146,80.12,80.12,0,0,0,2.008,58.482,81.14,81.14,0,0,0,7.707,13.877,82.691,82.691,0,0,0,10.207,12.09,84.061,84.061,0,0,0,42.26,22.268,86.371,86.371,0,0,0,31.164.466,124.918,124.918,0,0,1-1.789,39.921,123.717,123.717,0,0,1-7.533,23.718,125.494,125.494,0,0,1-11.92,21.462,127.957,127.957,0,0,1-15.787,18.7,130.025,130.025,0,0,1-65.362,34.441A133.174,133.174,0,0,1,5235.284,3682Zm128.446-140.809a123.267,123.267,0,0,0-10.118-36.521,125.922,125.922,0,0,0-20.146-31.225,129.71,129.71,0,0,0-63.082-39.437,80.762,80.762,0,0,1,11.974-22.1,83.044,83.044,0,0,1,18.056-17.409,83.965,83.965,0,0,1,22.8-11.406,85.479,85.479,0,0,1,58.736,2.327,83.871,83.871,0,0,1,26.57,17.507,82.7,82.7,0,0,1,10.207,12.09,81.148,81.148,0,0,1,7.707,13.876,80.277,80.277,0,0,1,1.278,60.464,81.035,81.035,0,0,1-14.591,24.225,83.965,83.965,0,0,1-49.387,27.609Z" transform="translate(-5106 -3379)" />
</svg>
