<svg id="Wordmark" xmlns="http://www.w3.org/2000/svg" width="297.089" height="103.212" viewBox="0 0 297.089 103.212">
  <rect id="Rectangle_83" data-name="Rectangle 83" width="20.203" height="72.585" transform="translate(87.122 29.547)"/>
  <path id="Path_550" data-name="Path 550" d="M1328.752-2341.741a11.435,11.435,0,0,0-8.418,3.44,11.48,11.48,0,0,0-3.435,8.432,11.478,11.478,0,0,0,3.435,8.433,11.439,11.439,0,0,0,8.418,3.44,11.443,11.443,0,0,0,8.418-3.44,11.479,11.479,0,0,0,3.434-8.433,11.482,11.482,0,0,0-3.434-8.432A11.44,11.44,0,0,0,1328.752-2341.741Z" transform="translate(-1231.529 2341.741)"/>
  <path id="Path_551" data-name="Path 551" d="M1405.09-2250.659a6.7,6.7,0,0,1-5.118-2.361,9.339,9.339,0,0,1-2.155-6.543v-32.515h17.509v-14.571h-17.509v-21.722h-20.337v21.722h-8.486v14.571h8.486v33.459q0,11.873,7.206,18.753a24.581,24.581,0,0,0,17.643,6.881q10.436,0,19.867-8.635l-7.543-14.166Q1410.744-2250.657,1405.09-2250.659Z" transform="translate(-1253.185 2336.198)"/>
  <path id="Path_552" data-name="Path 552" d="M1496.369-2250.659a6.7,6.7,0,0,1-5.118-2.361,9.34,9.34,0,0,1-2.154-6.543v-32.515h17.509v-14.571H1489.1v-21.722h-20.338v21.722h-8.484v14.571h8.484v33.459q0,11.873,7.206,18.753a24.581,24.581,0,0,0,17.643,6.881q10.437,0,19.866-8.635l-7.543-14.166Q1502.024-2250.657,1496.369-2250.659Z" transform="translate(-1291.131 2336.198)"/>
  <path id="Path_553" data-name="Path 553" d="M1613.819-2282.474q-10.91-10.859-27.409-10.862T1559-2282.474a36.148,36.148,0,0,0-10.909,26.646A35.923,35.923,0,0,0,1559-2229.25q10.91,10.8,27.408,10.793t27.409-10.793a35.922,35.922,0,0,0,10.909-26.579A36.146,36.146,0,0,0,1613.819-2282.474Zm-14.479,41.15a16.633,16.633,0,0,1-12.93,5.6,16.633,16.633,0,0,1-12.93-5.6q-5.05-5.6-5.051-14.5t5.051-14.571a16.54,16.54,0,0,1,12.93-5.667,16.54,16.54,0,0,1,12.93,5.667q5.051,5.666,5.051,14.571T1599.339-2241.323Z" transform="translate(-1327.638 2321.668)"/>
  <path id="Path_554" data-name="Path 554" d="M1227.2-2308.008a39.381,39.381,0,0,0-18.093-4.074q-16.5,0-27.408,10.861a36.146,36.146,0,0,0-10.909,26.646A35.923,35.923,0,0,0,1181.7-2248q10.91,10.794,27.408,10.793a39.587,39.587,0,0,0,18.093-4.046h0a37.366,37.366,0,0,0,9.474-6.865,36.345,36.345,0,0,0,11.054-25.443v-64.985H1227.2Zm-5.164,47.938a16.63,16.63,0,0,1-12.93,5.6,16.63,16.63,0,0,1-12.93-5.6q-5.051-5.6-5.051-14.5t5.051-14.57a16.541,16.541,0,0,1,12.93-5.667,16.541,16.541,0,0,1,12.93,5.667q5.05,5.667,5.051,14.57T1222.037-2260.07Z" transform="translate(-1170.79 2340.414)"/>
  <path id="Path_555" data-name="Path 555" d="M1264.914-2171.619q.716-.315,1.415-.665v-.029q-.7.354-1.415.677Z" transform="translate(-1209.918 2271.479)"/>
</svg>
